<svg version="1.1" id="Layer_1" xmlns="http://www.w3.org/2000/svg" xmlns:xlink="http://www.w3.org/1999/xlink" x="0px" y="0px"
	 width="100%" viewBox="0 0 240 239" enable-background="new 0 0 240 239" xml:space="preserve">
<path fill="#151819" opacity="1.000000" stroke="none" 
	d="
M159.000000,240.000000 
	C106.000000,240.000000 53.500008,240.000000 1.000007,240.000000 
	C1.000005,160.333344 1.000005,80.666679 1.000002,1.000018 
	C80.999992,1.000012 160.999985,1.000012 240.999969,1.000006 
	C240.999985,80.666649 240.999985,160.333298 241.000000,239.999969 
	C213.833328,240.000000 186.666672,240.000000 159.000000,240.000000 
M206.812607,164.596649 
	C205.393036,161.593658 203.956848,158.598389 202.556427,155.586502 
	C183.772919,115.188568 164.860809,74.849243 146.379166,34.313660 
	C143.996979,29.088863 140.442474,30.342203 136.686569,29.887474 
	C133.029114,29.444662 131.919724,31.564901 130.633301,34.332645 
	C113.882393,70.372047 97.023018,106.361015 80.217468,142.375061 
	C75.324448,152.860733 70.515182,163.385483 65.504913,174.244751 
	C69.874519,176.220459 73.732933,177.965027 77.877068,179.838791 
	C98.083832,136.514969 118.076630,93.649910 138.381973,50.114754 
	C158.764771,93.815018 178.773865,136.714050 198.946472,179.963669 
	C203.245667,177.880615 207.160110,175.983978 211.229523,174.012268 
	C209.657730,170.682037 208.384430,167.984253 206.812607,164.596649 
M71.558487,129.194626 
	C81.080719,108.752777 90.602951,88.310928 100.269257,67.559784 
	C96.020851,65.574677 92.164169,63.772598 87.888229,61.774620 
	C65.477036,109.838799 43.169113,157.681488 20.709684,205.849121 
	C24.813431,207.833527 28.647049,209.687302 33.062302,211.822342 
	C45.832150,184.333176 58.491165,157.082596 71.558487,129.194626 
z"/>
<path fill="#EBECED" opacity="1.000000" stroke="none" 
	d="
M206.961868,164.941559 
	C208.384430,167.984253 209.657730,170.682037 211.229523,174.012268 
	C207.160110,175.983978 203.245667,177.880615 198.946472,179.963669 
	C178.773865,136.714050 158.764771,93.815018 138.381973,50.114754 
	C118.076630,93.649910 98.083832,136.514969 77.877068,179.838791 
	C73.732933,177.965027 69.874519,176.220459 65.504913,174.244751 
	C70.515182,163.385483 75.324448,152.860733 80.217468,142.375061 
	C97.023018,106.361015 113.882393,70.372047 130.633301,34.332645 
	C131.919724,31.564901 133.029114,29.444662 136.686569,29.887474 
	C140.442474,30.342203 143.996979,29.088863 146.379166,34.313660 
	C164.860809,74.849243 183.772919,115.188568 202.556427,155.586502 
	C203.956848,158.598389 205.393036,161.593658 206.961868,164.941559 
z"/>
<path fill="#EAEBEC" opacity="1.000000" stroke="none" 
	d="
M71.354340,129.513321 
	C58.491165,157.082596 45.832150,184.333176 33.062302,211.822342 
	C28.647049,209.687302 24.813431,207.833527 20.709684,205.849121 
	C43.169113,157.681488 65.477036,109.838799 87.888229,61.774620 
	C92.164169,63.772598 96.020851,65.574677 100.269257,67.559784 
	C90.602951,88.310928 81.080719,108.752777 71.354340,129.513321 
z"/>
</svg>