<svg width="50" height="40" viewBox="0 0 50 40" fill="none" xmlns="http://www.w3.org/2000/svg">
<path d="M48.848 33.9413C48.9234 34.0914 48.9972 34.2381 49.0704 34.3833C49.5751 35.3847 49.1599 36.5807 48.1155 36.9891V36.9891C47.1332 37.3732 45.9753 36.9705 45.5027 36.0276C40.934 26.9117 36.391 17.8473 31.7881 8.6632C31.0504 7.19136 28.9514 7.19235 28.2208 8.66771C23.6614 17.8752 19.3383 26.9846 14.7615 36.1669C14.3359 37.0207 13.341 37.405 12.4616 37.0349V37.0349C11.4986 36.6297 11.0559 35.4873 11.519 34.5507C12.5687 32.4277 13.595 30.347 14.6352 28.2724C19.1716 19.2252 23.7226 10.1844 28.2442 1.13086C28.5915 0.435567 28.8909 -0.0970614 29.8782 0.0141781C31.25 -0.000586076 31.8516 -0.186442 32.4946 1.12609C37.4834 11.3091 42.5885 21.4428 47.6588 31.5912C48.0368 32.3479 48.4245 33.1003 48.848 33.9413Z" fill="url(#paint0_linear_405_57)"/>
<path d="M13.6708 19.3201C10.4617 25.721 7.29967 32.0535 4.1176 38.4281C3.68007 39.3046 2.596 39.6648 1.70265 39.2627V39.2627C0.756171 38.8368 0.387512 37.7231 0.85244 36.7951C6.36947 25.7838 11.8553 14.8348 17.3617 3.84443C17.7948 2.98013 18.8323 2.60704 19.7188 2.99255V2.99255C20.6759 3.40872 21.0833 4.54101 20.6162 5.47424C18.3005 10.1002 16.0075 14.6785 13.6708 19.3201Z" fill="url(#paint1_linear_405_57)"/>
<defs>
<linearGradient id="paint0_linear_405_57" x1="10.738" y1="2.30331" x2="10.738" y2="39.997" gradientUnits="userSpaceOnUse">
<stop stop-color="#9333EA"/>
<stop offset="1" stop-color="#F472B6"/>
</linearGradient>
<linearGradient id="paint1_linear_405_57" x1="10.738" y1="2.30331" x2="10.738" y2="39.997" gradientUnits="userSpaceOnUse">
<stop stop-color="#9333EA"/>
<stop offset="1" stop-color="#F472B6"/>
</linearGradient>
</defs>
</svg>
