<svg width="240" height="239" viewBox="0 0 240 239" fill="none" xmlns="http://www.w3.org/2000/svg">
<g clip-path="url(#clip0_405_51)">
<path d="M206.962 164.942C208.384 167.984 209.658 170.682 211.229 174.012C207.16 175.984 203.246 177.881 198.946 179.964C178.774 136.714 158.765 93.8151 138.382 50.1148C118.077 93.65 98.0838 136.515 77.877 179.839C73.7329 177.965 69.8745 176.221 65.5049 174.245C70.5152 163.386 75.3244 152.861 80.2174 142.375C97.023 106.361 113.882 70.3721 130.633 34.3327C131.92 31.565 133.029 29.4447 136.687 29.8875C140.442 30.3423 143.997 29.0889 146.379 34.3137C164.861 74.8493 183.773 115.189 202.556 155.587C203.957 158.598 205.393 161.594 206.962 164.942Z" fill="url(#paint0_linear_405_51)"/>
<path d="M76.6447 106.739C63.7815 134.308 51.1225 161.559 38.3526 189.048C33.9374 186.913 30.1037 185.059 26 183.074C48.4594 134.907 70.7673 87.0642 93.1785 39C97.4545 40.998 101.311 42.8001 105.56 44.7852C95.8933 65.5363 86.371 85.9782 76.6447 106.739Z" fill="url(#paint1_linear_405_51)"/>
</g>
<defs>
<linearGradient id="paint0_linear_405_51" x1="65.7798" y1="39" x2="65.7798" y2="189.048" gradientUnits="userSpaceOnUse">
<stop stop-color="#9333EA"/>
<stop offset="1" stop-color="#F472B6"/>
</linearGradient>
<linearGradient id="paint1_linear_405_51" x1="65.7798" y1="39" x2="65.7798" y2="189.048" gradientUnits="userSpaceOnUse">
<stop stop-color="#9333EA"/>
<stop offset="1" stop-color="#F472B6"/>
</linearGradient>
<clipPath id="clip0_405_51">
<rect width="240" height="239" fill="white"/>
</clipPath>
</defs>
</svg>
